<svg xmlns="http://www.w3.org/2000/svg" style="display:none">
<!-- simplified 24x24 stand-ins, stroke 2, round caps: NOT upstream's glyphs -->
<symbol id="i-menu" viewBox="0 0 24 24"><path d="M4 6h16M4 12h16M4 18h16"/></symbol>
<symbol id="i-lock" viewBox="0 0 24 24"><rect x="5" y="11" width="14" height="10" rx="2"/><path d="M8 11V7a4 4 0 0 1 8 0v4"/></symbol>
<symbol id="i-hand" viewBox="0 0 24 24"><path d="M8 13V5.5a1.5 1.5 0 0 1 3 0V12M11 5.5V4a1.5 1.5 0 0 1 3 0v8M14 5.5a1.5 1.5 0 0 1 3 0V12"/><path d="M17 11.5a1.5 1.5 0 0 1 3 0V16a6 6 0 0 1-6 6h-2a6 6 0 0 1-5-2.7L4 14a1.6 1.6 0 0 1 2.7-1.7L8 14"/></symbol>
<symbol id="i-select" viewBox="0 0 24 24"><path d="M6 3l14 9-6 1.5L11 20z"/></symbol>
<symbol id="i-rect" viewBox="0 0 24 24"><rect x="4" y="4" width="16" height="16" rx="2"/></symbol>
<symbol id="i-diamond" viewBox="0 0 24 24"><path d="M12 3l9 9-9 9-9-9z"/></symbol>
<symbol id="i-ellipse" viewBox="0 0 24 24"><ellipse cx="12" cy="12" rx="9" ry="7"/></symbol>
<symbol id="i-arrow" viewBox="0 0 24 24"><path d="M5 19L19 5M11 5h8v8"/></symbol>
<symbol id="i-line" viewBox="0 0 24 24"><path d="M4 20L20 4"/></symbol>
<symbol id="i-pen" viewBox="0 0 24 24"><path d="M4 20l4-1 10-10-3-3L5 16zM13 7l3 3"/></symbol>
<symbol id="i-text" viewBox="0 0 24 24"><path d="M6 5h12M12 5v14M9 19h6"/></symbol>
<symbol id="i-note" viewBox="0 0 24 24"><path d="M4 4h16v10l-6 6H4z"/><path d="M14 20v-6h6"/></symbol>
<symbol id="i-eraser" viewBox="0 0 24 24"><path d="M19 20H8l-4-4 9-9 7 7-5 6M9 11l7 7"/></symbol>
<symbol id="i-image" viewBox="0 0 24 24"><rect x="4" y="5" width="16" height="14" rx="2"/><circle cx="9" cy="10" r="1.5"/><path d="M4 17l5-5 4 4 3-3 4 4"/></symbol>
<symbol id="i-frame" viewBox="0 0 24 24"><path d="M4 8h16M4 16h16M8 4v16M16 4v16"/></symbol>
<symbol id="i-more" viewBox="0 0 24 24"><circle cx="6" cy="12" r="1"/><circle cx="12" cy="12" r="1"/><circle cx="18" cy="12" r="1"/></symbol>
<symbol id="i-library" viewBox="0 0 24 24"><rect x="4" y="4" width="16" height="16" rx="2"/><path d="M14 4v16"/></symbol>
<symbol id="i-undo" viewBox="0 0 24 24"><path d="M9 14L4 9l5-5"/><path d="M4 9h11a5 5 0 0 1 0 10h-3"/></symbol>
<symbol id="i-redo" viewBox="0 0 24 24"><path d="M15 14l5-5-5-5"/><path d="M20 9H9a5 5 0 0 0 0 10h3"/></symbol>
<symbol id="i-minus" viewBox="0 0 24 24"><path d="M5 12h14"/></symbol>
<symbol id="i-plus" viewBox="0 0 24 24"><path d="M12 5v14M5 12h14"/></symbol>
<symbol id="i-laser" viewBox="0 0 24 24"><path d="M4 20L14 10M14 4v3M20 10h-3M18 6l-2 2"/></symbol>
<symbol id="i-bucket" viewBox="0 0 24 24"><path d="M5 12l7-7 7 7-7 7z"/><path d="M19 16c0 1.5-1 3-1 3s-1-1.5-1-3 1-2 1-2 1 .5 1 2"/></symbol>
<symbol id="i-lasso" viewBox="0 0 24 24"><ellipse cx="12" cy="9" rx="8" ry="5" stroke-dasharray="3 3"/><path d="M8 14v6"/></symbol>
<symbol id="i-hachure" viewBox="0 0 24 24"><rect x="4" y="4" width="16" height="16" rx="2"/><path d="M6 14l8-8M6 18l12-12M10 18l8-8"/></symbol>
<symbol id="i-cross" viewBox="0 0 24 24"><rect x="4" y="4" width="16" height="16" rx="2"/><path d="M6 14l8-8M6 18l12-12M10 18l8-8M18 14l-8-8M18 18L6 6M14 18l-8-8"/></symbol>
<symbol id="i-solid" viewBox="0 0 24 24"><rect x="4" y="4" width="16" height="16" rx="2" fill="currentColor"/></symbol>
<symbol id="i-w1" viewBox="0 0 24 24"><path d="M5 12h14" stroke-width="1"/></symbol>
<symbol id="i-w2" viewBox="0 0 24 24"><path d="M5 12h14" stroke-width="2.5"/></symbol>
<symbol id="i-w3" viewBox="0 0 24 24"><path d="M5 12h14" stroke-width="4"/></symbol>
<symbol id="i-dash" viewBox="0 0 24 24"><path d="M5 12h14" stroke-dasharray="4 3"/></symbol>
<symbol id="i-dot" viewBox="0 0 24 24"><path d="M5 12h14" stroke-dasharray="1.5 3"/></symbol>
<symbol id="i-s0" viewBox="0 0 24 24"><path d="M4 16c4-8 12-8 16 0"/></symbol>
<symbol id="i-s1" viewBox="0 0 24 24"><path d="M4 16c3-7 5-9 8-3s5 3 8-1"/></symbol>
<symbol id="i-s2" viewBox="0 0 24 24"><path d="M3 15c3-9 4-2 7-6s3 6 6 1 3 2 5 3"/></symbol>
<symbol id="i-sharp" viewBox="0 0 24 24"><path d="M4 20V4h16"/></symbol>
<symbol id="i-round" viewBox="0 0 24 24"><path d="M4 20V10a6 6 0 0 1 6-6h10"/></symbol>
<symbol id="i-al" viewBox="0 0 24 24"><path d="M5 5h14M5 12h9M5 19h14"/></symbol>
<symbol id="i-ac" viewBox="0 0 24 24"><path d="M5 5h14M8 12h8M5 19h14"/></symbol>
<symbol id="i-ar" viewBox="0 0 24 24"><path d="M5 5h14M10 12h9M5 19h14"/></symbol>
<symbol id="i-dup" viewBox="0 0 24 24"><rect x="8" y="8" width="12" height="12" rx="2"/><path d="M16 8V6a2 2 0 0 0-2-2H6a2 2 0 0 0-2 2v8a2 2 0 0 0 2 2h2"/></symbol>
<symbol id="i-trash" viewBox="0 0 24 24"><path d="M4 7h16M10 11v6M14 11v6M5 7l1 12a2 2 0 0 0 2 2h8a2 2 0 0 0 2-2l1-12M9 7V4h6v3"/></symbol>
<symbol id="i-group" viewBox="0 0 24 24"><rect x="3" y="3" width="10" height="10" rx="1"/><rect x="11" y="11" width="10" height="10" rx="1"/></symbol>
<symbol id="i-link" viewBox="0 0 24 24"><path d="M10 14a3.5 3.5 0 0 0 5 0l4-4a3.5 3.5 0 0 0-5-5l-.5.5M14 10a3.5 3.5 0 0 0-5 0l-4 4a3.5 3.5 0 0 0 5 5l.5-.5"/></symbol>
<symbol id="i-back" viewBox="0 0 24 24"><rect x="8" y="8" width="12" height="12" rx="1"/><path d="M4 16V6a2 2 0 0 1 2-2h10"/></symbol>
<symbol id="i-front" viewBox="0 0 24 24"><rect x="4" y="4" width="12" height="12" rx="1" fill="currentColor" fill-opacity=".2"/><path d="M20 8v10a2 2 0 0 1-2 2H8"/></symbol>
<symbol id="i-search" viewBox="0 0 24 24"><circle cx="10" cy="10" r="6"/><path d="M20 20l-5-5"/></symbol>
<symbol id="i-adjust" viewBox="0 0 24 24"><path d="M4 8h10M18 8h2M4 16h4M12 16h8"/><circle cx="16" cy="8" r="2"/><circle cx="10" cy="16" r="2"/></symbol>
<symbol id="i-fit" viewBox="0 0 24 24"><path d="M4 9V5h4M20 9V5h-4M4 15v4h4M20 15v4h-4"/></symbol>
<symbol id="i-code" viewBox="0 0 24 24"><path d="M8 8l-4 4 4 4M16 8l4 4-4 4M14 5l-4 14"/></symbol>
</svg>
